<?xml version="1.0" encoding="utf-8"?>
<!-- Svg Vector Icons : http://www.onlinewebfonts.com/icon -->
<!DOCTYPE svg PUBLIC "-//W3C//DTD SVG 1.1//EN" "http://www.w3.org/Graphics/SVG/1.1/DTD/svg11.dtd">
<svg version="1.1" xmlns="http://www.w3.org/2000/svg" xmlns:xlink="http://www.w3.org/1999/xlink" x="0px" y="0px" viewBox="0 0 256 256" enable-background="new 0 0 256 256" xml:space="preserve">
<metadata> Svg Vector Icons : http://www.onlinewebfonts.com/icon </metadata>
<g><g><path fill="#000000" d="M24.6,80.5h206.8c8.1,0,14.6-6.4,14.6-14.3c0-7.9-6.5-14.3-14.6-14.3H24.6c-8.1,0-14.6,6.4-14.6,14.3C10,74,16.5,80.5,24.6,80.5"/><path fill="#000000" d="M24.6,142.3h206.8c8.1,0,14.6-6.4,14.6-14.3c0-7.9-6.5-14.3-14.6-14.3H24.6c-8,0-14.6,6.4-14.6,14.3C10,135.9,16.5,142.3,24.6,142.3"/><path fill="#000000" d="M24.6,204.2h206.8c8.1,0,14.6-6.4,14.6-14.3c0-7.9-6.5-14.3-14.6-14.3H24.6c-8.1,0-14.6,6.4-14.6,14.3C10,197.8,16.5,204.2,24.6,204.2"/></g></g>
</svg>